<svg xmlns="http://www.w3.org/2000/svg" xmlns:svg="http://www.w3.org/2000/svg" id="svg5" width="48" height="48" version="1.1" viewBox="0 0 48 48"><g id="layer2" style="display:inline"><circle style="display:inline;fill:#f2beca;fill-opacity:1;fill-rule:evenodd;stroke:#df5d7b;stroke-width:2;stroke-dasharray:none;stroke-opacity:1" id="path111" cx="24" cy="24" r="20"/><circle style="display:inline;fill:#f2beca;fill-opacity:0;fill-rule:evenodd;stroke:#fff;stroke-width:3;stroke-dasharray:none;stroke-opacity:1" id="path111-3" cx="24" cy="24" r="17.972"/></g><g id="layer1" style="display:inline"><path style="display:inline;fill:#fff;fill-opacity:1;stroke:none;stroke-width:1.5;stroke-linecap:round;stroke-linejoin:round;stroke-miterlimit:9.3;stroke-dasharray:none;stroke-opacity:1" id="path29726" d="m 17.345869,21.546814 0,-5.952297 a 1.4433757,1.4433757 150 0 1 2.165063,-1.25 l 5.154841,2.976148 a 1.4433757,1.4433757 90 0 1 0,2.5 l -5.154841,2.976149 a 1.4433757,1.4433757 30 0 1 -2.165063,-1.25 z" transform="matrix(1.5103576,0,0,1.5103576,-7.587948,-4.0483456)"/><path style="display:inline;fill:#fff;fill-opacity:1;stroke:none;stroke-width:1.5;stroke-linecap:round;stroke-linejoin:round;stroke-miterlimit:9.3;stroke-dasharray:none;stroke-opacity:1" id="path29726-7" d="m 16.698821,21.631999 -1.020398,-3.808175 a 2.5,2.5 120 0 1 1.767767,-3.061862 l 3.808176,-1.020398 a 2.5,2.5 30 0 1 3.061862,1.767767 l 1.020398,3.808176 a 2.5,2.5 120 0 1 -1.767767,3.061862 l -3.808176,1.020397 a 2.5,2.5 30 0 1 -3.061862,-1.767767 z" transform="matrix(1.4588934,0.39090931,-0.39090931,1.4588934,1.3411539,-11.109203)"/><g id="g52082" transform="translate(-0.45076942,-0.15283155)" style="display:inline"><path style="display:inline;fill:#fff;fill-opacity:1;stroke:none;stroke-width:1.496;stroke-linecap:round;stroke-linejoin:round;stroke-miterlimit:9.3;stroke-dasharray:none;stroke-opacity:1" id="rect52038" width="5.094" height="13.506" x="17.702" y="17.4" d="m 20.202,17.399664 h 0.09369 a 2.5,2.5 45 0 1 2.5,2.5 v 8.505999 a 2.5,2.5 135 0 1 -2.5,2.5 H 20.202 a 2.5,2.5 45 0 1 -2.5,-2.5 v -8.505999 a 2.5,2.5 135 0 1 2.5,-2.5 z"/><path style="display:inline;fill:#fff;fill-opacity:1;stroke:none;stroke-width:1.496;stroke-linecap:round;stroke-linejoin:round;stroke-miterlimit:9.3;stroke-dasharray:none;stroke-opacity:1" id="rect52038-6" width="5.094" height="13.506" x="26.106" y="17.4" d="m 28.60585,17.4 h 0.09369 a 2.5,2.5 45 0 1 2.5,2.5 v 8.505999 a 2.5,2.5 135 0 1 -2.5,2.5 h -0.09369 a 2.5,2.5 45 0 1 -2.5,-2.5 V 19.9 a 2.5,2.5 135 0 1 2.5,-2.5 z"/></g></g></svg>